<svg width="343" height="36" viewBox="0 0 343 36" fill="none" xmlns="http://www.w3.org/2000/svg">
<path d="M13.7936 1.4H19.1696C22.3696 1.4 24.9136 1.832 26.8016 2.696C28.6896 3.528 30.0656 4.632 30.9296 6.008C31.8256 7.384 32.3216 8.904 32.4176 10.568C32.5136 12.328 32.2416 13.928 31.6016 15.368C30.9936 16.808 30.1136 18.008 28.9616 18.968C27.8416 19.928 26.5616 20.616 25.1216 21.032C23.6816 21.416 22.1776 21.48 20.6096 21.224C19.0416 20.936 17.5216 20.264 16.0496 19.208V18.728C16.0496 18.728 16.1936 18.712 16.4816 18.68C16.8016 18.616 17.2016 18.488 17.6816 18.296C18.1616 18.104 18.6576 17.816 19.1696 17.432C19.7136 17.048 20.2256 16.504 20.7056 15.8C21.1856 15.064 21.5536 14.152 21.8096 13.064C21.9376 12.584 22.0176 12.088 22.0496 11.576C22.1136 11.064 22.1296 10.6 22.0976 10.184C22.0336 8.232 21.4736 6.68 20.4176 5.528C19.3936 4.376 17.9536 3.8 16.0976 3.8H14.2736C14.2736 3.8 14.2256 3.608 14.1296 3.224C14.0656 2.808 13.9856 2.408 13.8896 2.024C13.8256 1.608 13.7936 1.4 13.7936 1.4ZM14.4176 1.4V35H4.57757V1.4H14.4176ZM4.72157 31.496V35H0.881569V34.52C0.945569 34.52 1.05757 34.52 1.21757 34.52C1.37757 34.52 1.47357 34.52 1.50557 34.52C2.33757 34.52 3.04157 34.232 3.61757 33.656C4.22557 33.048 4.54557 32.328 4.57757 31.496H4.72157ZM4.72157 4.904H4.57757C4.57757 4.072 4.27357 3.368 3.66557 2.792C3.05757 2.184 2.33757 1.88 1.50557 1.88C1.47357 1.88 1.37757 1.88 1.21757 1.88C1.08957 1.88 0.993569 1.88 0.929569 1.88L0.881569 1.4H4.72157V4.904ZM14.2736 31.496H14.4176C14.4496 32.328 14.7536 33.048 15.3296 33.656C15.9376 34.232 16.6576 34.52 17.4896 34.52C17.5536 34.52 17.6656 34.52 17.8256 34.52C17.9856 34.52 18.0816 34.52 18.1136 34.52V35H14.2736V31.496ZM44.6591 6.2V35H35.2511V6.2H44.6591ZM54.7871 32.792L56.7071 35H44.5631V32.792H54.7871ZM53.5871 19.688V21.944H44.5631V19.688H53.5871ZM55.6991 6.2V8.408H44.5631V6.2H55.6991ZM58.1471 24.92L56.8031 35H47.8751L49.2671 32.792C50.5151 32.792 51.6991 32.488 52.8191 31.88C53.9711 31.24 54.9791 30.344 55.8431 29.192C56.7071 28.008 57.3311 26.584 57.7151 24.92H58.1471ZM53.5871 21.848V27.032H53.1071V26.84C53.1071 25.432 52.6591 24.28 51.7631 23.384C50.8991 22.456 49.7631 21.976 48.3551 21.944V21.848H53.5871ZM53.5871 14.648V19.784H48.3551V19.688C49.7631 19.656 50.8991 19.176 51.7631 18.248C52.6591 17.32 53.1071 16.152 53.1071 14.744V14.648H53.5871ZM55.6991 8.312V14.552H55.2191V14.312C55.2191 12.456 54.7391 11.016 53.7791 9.992C52.8191 8.968 51.4271 8.44 49.6031 8.408V8.312H55.6991ZM55.6991 5.48V6.632L50.9471 6.2C51.8111 6.2 52.7231 6.12 53.6831 5.96C54.6751 5.768 55.3471 5.608 55.6991 5.48ZM35.3951 32.024L35.3471 35H32.2271V34.52C32.2271 34.52 32.3071 34.52 32.4671 34.52C32.6271 34.52 32.7231 34.52 32.7551 34.52C33.4271 34.52 34.0031 34.28 34.4831 33.8C34.9951 33.32 35.2511 32.728 35.2511 32.024H35.3951ZM35.3951 9.224H35.2511C35.2511 8.488 34.9951 7.88 34.4831 7.4C34.0031 6.92 33.4271 6.68 32.7551 6.68C32.7231 6.68 32.6271 6.68 32.4671 6.68C32.3071 6.68 32.2271 6.68 32.2271 6.68V6.2H35.3471L35.3951 9.224ZM70.4924 6.2H74.9564C76.1724 6.2 77.4204 6.312 78.7004 6.536C79.9804 6.728 81.1644 7.096 82.2524 7.64C83.3404 8.184 84.2204 8.984 84.8924 10.04C85.5644 11.064 85.9004 12.424 85.9004 14.12C85.9004 15.08 85.7244 16.104 85.3724 17.192C85.0524 18.28 84.4444 19.256 83.5484 20.12C82.6844 20.952 81.4204 21.512 79.7564 21.8C80.9724 22.12 82.0444 22.728 82.9724 23.624C83.9004 24.52 84.5724 25.336 84.9884 26.072C85.2124 26.456 85.4524 26.936 85.7084 27.512C85.9964 28.056 86.3324 28.664 86.7164 29.336C87.1004 30.008 87.5324 30.728 88.0124 31.496C88.6204 32.424 89.1484 33.112 89.5964 33.56C90.0444 33.976 90.4764 34.248 90.8924 34.376C91.3084 34.472 91.7724 34.52 92.2844 34.52V35H86.6204C84.9244 35 83.4524 34.936 82.2044 34.808C80.9564 34.648 79.8364 34.232 78.8444 33.56C77.8844 32.856 76.9404 31.72 76.0124 30.152C75.6604 29.544 75.3564 28.984 75.1004 28.472C74.8764 27.928 74.6844 27.4 74.5244 26.888C74.3644 26.376 74.2204 25.848 74.0924 25.304C73.9964 24.76 73.8844 24.2 73.7564 23.624C73.5324 22.504 73.2444 21.784 72.8924 21.464C72.5404 21.112 72.3004 20.92 72.1724 20.888V20.504C72.2044 20.504 72.2364 20.504 72.2684 20.504C72.3004 20.504 72.3484 20.504 72.4124 20.504C72.9244 20.504 73.4364 20.344 73.9484 20.024C74.4604 19.704 74.9084 19.176 75.2924 18.44C75.6764 17.672 75.9324 16.616 76.0604 15.272C76.0604 15.176 76.0764 15 76.1084 14.744C76.1404 14.488 76.1404 14.152 76.1084 13.736C76.0444 12.36 75.8044 11.32 75.3884 10.616C74.9724 9.88 74.4924 9.368 73.9484 9.08C73.4364 8.792 72.9724 8.632 72.5564 8.6C72.1404 8.536 71.9004 8.504 71.8364 8.504C71.7724 8.504 71.6924 8.504 71.5964 8.504C71.5324 8.504 71.2764 8.504 70.8284 8.504C70.7964 8.504 70.7484 8.312 70.6844 7.928C70.6524 7.544 70.6044 7.16 70.5404 6.776C70.5084 6.392 70.4924 6.2 70.4924 6.2ZM70.8764 6.2V35H61.4204V6.2H70.8764ZM61.5644 32.024L61.5164 35H58.4444V34.52C58.5084 34.52 58.5724 34.52 58.6364 34.52C58.7324 34.52 58.8444 34.52 58.9724 34.52C59.6124 34.52 60.1724 34.28 60.6524 33.8C61.1644 33.32 61.4204 32.728 61.4204 32.024H61.5644ZM61.5644 9.176H61.4204C61.4204 8.44 61.1804 7.848 60.7004 7.4C60.2204 6.92 59.6604 6.68 59.0204 6.68C58.8924 6.68 58.7804 6.68 58.6844 6.68C58.5884 6.68 58.5084 6.68 58.4444 6.68V6.2H61.5164L61.5644 9.176ZM70.7804 32.024H70.8764C70.8764 32.856 71.1644 33.48 71.7404 33.896C72.3164 34.312 72.8764 34.52 73.4204 34.52C73.4204 34.52 73.4684 34.52 73.5644 34.52C73.6604 34.52 73.7564 34.52 73.8524 34.52V35H70.8284L70.7804 32.024ZM99.5096 5.624C99.9896 5.624 100.758 5.656 101.814 5.72C102.87 5.752 103.974 5.816 105.126 5.912C106.31 6.008 107.35 6.12 108.246 6.248C109.142 6.344 109.686 6.44 109.878 6.536L108.822 13.064H108.534C108.534 11.528 107.974 10.28 106.854 9.32C105.734 8.36 104.214 7.88 102.294 7.88C100.79 7.88 99.6216 8.168 98.7896 8.744C97.9576 9.288 97.4776 10.056 97.3496 11.048C97.2856 11.752 97.4296 12.344 97.7816 12.824C98.1656 13.272 98.6776 13.656 99.3176 13.976C99.9576 14.296 100.614 14.6 101.286 14.888L107.478 17.72C109.078 18.424 110.374 19.48 111.366 20.888C112.358 22.264 112.758 24.056 112.566 26.264C112.406 28.312 111.798 30.04 110.742 31.448C109.686 32.824 108.214 33.864 106.326 34.568C104.438 35.24 102.166 35.576 99.5096 35.576C97.8456 35.576 96.3896 35.448 95.1416 35.192C93.8936 34.936 92.8696 34.6 92.0696 34.184C91.2696 33.768 90.6776 33.32 90.2936 32.84C89.9416 32.104 89.7976 31.208 89.8616 30.152C89.9256 29.096 90.1336 28.072 90.4856 27.08C90.8376 26.056 91.2536 25.24 91.7336 24.632H92.0216C91.9576 26.072 92.2456 27.464 92.8856 28.808C93.5576 30.12 94.5496 31.208 95.8616 32.072C97.2056 32.904 98.8216 33.336 100.71 33.368C102.502 33.4 103.782 33.016 104.55 32.216C105.35 31.416 105.75 30.552 105.75 29.624C105.75 28.728 105.366 27.912 104.598 27.176C103.862 26.44 102.646 25.704 100.95 24.968L95.9096 22.616C93.8616 21.752 92.3416 20.488 91.3496 18.824C90.3896 17.128 90.0696 15.208 90.3896 13.064C90.6456 11.4 91.1576 10.024 91.9256 8.936C92.7256 7.816 93.7656 6.984 95.0456 6.44C96.3256 5.896 97.8136 5.624 99.5096 5.624ZM109.974 6.056L109.83 6.872H103.59V6.056H109.974ZM131.506 5.624C134.258 5.624 136.706 5.96 138.85 6.632C141.026 7.304 142.866 8.28 144.37 9.56C145.906 10.84 147.058 12.408 147.826 14.264C148.626 16.12 149.026 18.248 149.026 20.648C149.026 23.016 148.626 25.128 147.826 26.984C147.058 28.808 145.906 30.36 144.37 31.64C142.866 32.92 141.026 33.896 138.85 34.568C136.706 35.24 134.258 35.576 131.506 35.576C128.786 35.576 126.338 35.24 124.162 34.568C122.018 33.896 120.178 32.92 118.642 31.64C117.138 30.36 115.986 28.808 115.186 26.984C114.418 25.128 114.034 23.016 114.034 20.648C114.034 18.248 114.418 16.12 115.186 14.264C115.986 12.408 117.138 10.84 118.642 9.56C120.178 8.28 122.018 7.304 124.162 6.632C126.338 5.96 128.786 5.624 131.506 5.624ZM131.506 33.416C133.202 33.416 134.61 32.92 135.73 31.928C136.882 30.904 137.746 29.448 138.322 27.56C138.898 25.64 139.186 23.336 139.186 20.648C139.186 17.928 138.898 15.608 138.322 13.688C137.746 11.768 136.882 10.312 135.73 9.32C134.61 8.296 133.202 7.784 131.506 7.784C129.842 7.784 128.434 8.296 127.282 9.32C126.162 10.312 125.298 11.768 124.69 13.688C124.114 15.608 123.826 17.928 123.826 20.648C123.826 23.336 124.114 25.64 124.69 27.56C125.298 29.448 126.162 30.904 127.282 31.928C128.434 32.92 129.842 33.416 131.506 33.416ZM151.551 5.576L180.735 30.152L181.263 35.576L152.079 11.096L151.551 5.576ZM151.839 32.12V35H148.287V34.52C148.287 34.52 148.415 34.52 148.671 34.52C148.927 34.52 149.055 34.52 149.055 34.52C149.791 34.52 150.415 34.296 150.927 33.848C151.439 33.4 151.695 32.824 151.695 32.12H151.839ZM161.103 32.12C161.135 32.824 161.407 33.4 161.919 33.848C162.431 34.296 163.039 34.52 163.743 34.52C163.743 34.52 163.871 34.52 164.127 34.52C164.383 34.52 164.511 34.52 164.511 34.52V35H161.007V32.12H161.103ZM151.551 5.576L161.103 15.704V35H151.695V10.664C151.695 9.032 151.599 7.784 151.407 6.92C151.215 6.024 151.119 5.576 151.119 5.576H151.551ZM181.119 6.2V30.344C181.119 31.496 181.167 32.472 181.263 33.272C181.359 34.04 181.455 34.616 181.551 35C181.647 35.384 181.695 35.576 181.695 35.576H181.263L171.711 24.632L171.663 6.2H181.119ZM181.023 9.08V6.2H184.575V6.68C184.575 6.68 184.431 6.68 184.143 6.68C183.887 6.68 183.759 6.68 183.759 6.68C183.055 6.68 182.447 6.904 181.935 7.352C181.423 7.8 181.151 8.376 181.119 9.08H181.023ZM171.663 9.08C171.663 8.376 171.407 7.8 170.895 7.352C170.415 6.904 169.807 6.68 169.071 6.68C169.071 6.68 168.927 6.68 168.639 6.68C168.383 6.68 168.255 6.68 168.255 6.68V6.2H171.807V9.08H171.663ZM197.981 4.472L212.861 34.76H201.965L193.853 16.232L197.981 4.472ZM189.101 32.072C188.749 32.872 188.797 33.48 189.245 33.896C189.693 34.312 190.189 34.52 190.733 34.52H191.069V35H181.181V34.52C181.181 34.52 181.245 34.52 181.373 34.52C181.501 34.52 181.565 34.52 181.565 34.52C182.205 34.52 182.877 34.344 183.581 33.992C184.285 33.608 184.845 32.968 185.261 32.072H189.101ZM197.981 4.472L197.933 11.816L187.853 34.856H183.965L195.101 10.856C195.229 10.536 195.421 10.104 195.677 9.56C195.933 8.984 196.189 8.376 196.445 7.736C196.733 7.064 196.989 6.44 197.213 5.864C197.437 5.288 197.565 4.824 197.597 4.472H197.981ZM201.197 26.744V28.904H189.245V26.744H201.197ZM200.765 32.072H211.517C211.965 32.968 212.541 33.608 213.245 33.992C213.949 34.344 214.621 34.52 215.261 34.52C215.261 34.52 215.325 34.52 215.453 34.52C215.581 34.52 215.645 34.52 215.645 34.52V35H198.749V34.52H199.133C199.677 34.52 200.173 34.312 200.621 33.896C201.069 33.48 201.117 32.872 200.765 32.072ZM226.581 1.4V35H216.741V1.4H226.581ZM237.477 17.24V19.64H226.437V17.24H237.477ZM240.021 1.4V3.848H226.437V1.4H240.021ZM237.477 19.544V25.112H236.997V24.872C236.997 23.368 236.501 22.136 235.509 21.176C234.549 20.184 233.317 19.672 231.813 19.64V19.544H237.477ZM237.477 11.768V17.336H231.813V17.24C233.317 17.208 234.565 16.696 235.557 15.704C236.549 14.712 237.029 13.464 236.997 11.96V11.768H237.477ZM240.021 3.704V10.424H239.541V10.04C239.541 8.12 238.997 6.616 237.909 5.528C236.821 4.408 235.301 3.832 233.349 3.8V3.704H240.021ZM240.021 0.535997V1.928L234.165 1.4C234.869 1.4 235.605 1.352 236.373 1.256C237.173 1.16 237.909 1.048 238.581 0.919998C239.253 0.791998 239.733 0.663998 240.021 0.535997ZM216.885 31.496V35H213.045V34.52C213.045 34.52 213.141 34.52 213.333 34.52C213.557 34.52 213.669 34.52 213.669 34.52C214.501 34.52 215.205 34.232 215.781 33.656C216.389 33.048 216.709 32.328 216.741 31.496H216.885ZM216.885 4.904H216.741C216.709 4.072 216.389 3.368 215.781 2.792C215.205 2.184 214.501 1.88 213.669 1.88C213.669 1.88 213.557 1.88 213.333 1.88C213.141 1.88 213.045 1.88 213.045 1.88V1.4H216.885V4.904ZM226.437 31.496H226.581C226.613 32.328 226.917 33.048 227.493 33.656C228.101 34.232 228.821 34.52 229.653 34.52C229.653 34.52 229.749 34.52 229.941 34.52C230.133 34.52 230.245 34.52 230.277 34.52V35H226.437V31.496ZM253.407 6.2V35H243.999V6.2H253.407ZM263.487 32.792L265.455 35H253.311V32.792H263.487ZM266.943 24.92L265.551 35H256.623L258.015 32.792C259.263 32.792 260.447 32.488 261.567 31.88C262.719 31.24 263.727 30.344 264.591 29.192C265.455 28.008 266.079 26.584 266.463 24.92H266.943ZM244.143 32.024L244.095 35H240.975V34.52C240.975 34.52 241.055 34.52 241.215 34.52C241.375 34.52 241.471 34.52 241.503 34.52C242.175 34.52 242.751 34.28 243.231 33.8C243.743 33.32 243.999 32.728 243.999 32.024H244.143ZM253.311 9.176V6.2H256.479V6.68C256.447 6.68 256.351 6.68 256.191 6.68C256.031 6.68 255.951 6.68 255.951 6.68C255.247 6.68 254.655 6.92 254.175 7.4C253.695 7.848 253.439 8.44 253.407 9.176H253.311ZM244.143 9.176H243.999C243.999 8.44 243.743 7.848 243.231 7.4C242.751 6.92 242.175 6.68 241.503 6.68C241.471 6.68 241.375 6.68 241.215 6.68C241.055 6.68 240.975 6.68 240.975 6.68V6.2H244.143V9.176ZM284.422 5.624C287.174 5.624 289.622 5.96 291.766 6.632C293.942 7.304 295.782 8.28 297.286 9.56C298.822 10.84 299.974 12.408 300.742 14.264C301.542 16.12 301.942 18.248 301.942 20.648C301.942 23.016 301.542 25.128 300.742 26.984C299.974 28.808 298.822 30.36 297.286 31.64C295.782 32.92 293.942 33.896 291.766 34.568C289.622 35.24 287.174 35.576 284.422 35.576C281.702 35.576 279.254 35.24 277.078 34.568C274.934 33.896 273.094 32.92 271.558 31.64C270.054 30.36 268.902 28.808 268.102 26.984C267.334 25.128 266.95 23.016 266.95 20.648C266.95 18.248 267.334 16.12 268.102 14.264C268.902 12.408 270.054 10.84 271.558 9.56C273.094 8.28 274.934 7.304 277.078 6.632C279.254 5.96 281.702 5.624 284.422 5.624ZM284.422 33.416C286.118 33.416 287.526 32.92 288.646 31.928C289.798 30.904 290.662 29.448 291.238 27.56C291.814 25.64 292.102 23.336 292.102 20.648C292.102 17.928 291.814 15.608 291.238 13.688C290.662 11.768 289.798 10.312 288.646 9.32C287.526 8.296 286.118 7.784 284.422 7.784C282.758 7.784 281.35 8.296 280.198 9.32C279.078 10.312 278.214 11.768 277.606 13.688C277.03 15.608 276.742 17.928 276.742 20.648C276.742 23.336 277.03 25.64 277.606 27.56C278.214 29.448 279.078 30.904 280.198 31.928C281.35 32.92 282.758 33.416 284.422 33.416ZM301.362 6.488H311.154L316.77 19.352L312.642 35.48L301.362 6.488ZM323.922 5.576L325.122 10.328L314.178 30.968C314.178 30.968 314.082 31.192 313.89 31.64C313.698 32.056 313.506 32.616 313.314 33.32C313.122 33.992 313.026 34.712 313.026 35.48H312.642L311.106 29.48L323.586 5.576H323.922ZM323.922 5.576L333.474 21.56L330.498 35.48L319.794 17.384L323.922 5.576ZM339.234 6.488L331.41 30.968C331.41 30.968 331.346 31.208 331.218 31.688C331.09 32.136 330.978 32.712 330.882 33.416C330.786 34.12 330.786 34.808 330.882 35.48H330.498L328.674 31.448L335.922 6.488H339.234ZM335.154 9.128C335.346 8.296 335.266 7.688 334.914 7.304C334.562 6.888 334.098 6.68 333.522 6.68H333.186V6.2H342.354V6.68C342.354 6.68 342.29 6.68 342.162 6.68C342.066 6.68 342.018 6.68 342.018 6.68C341.41 6.68 340.722 6.872 339.954 7.256C339.186 7.608 338.658 8.248 338.37 9.176L335.154 9.128ZM312.306 9.176H302.37C302.018 8.248 301.49 7.608 300.786 7.256C300.082 6.872 299.41 6.68 298.77 6.68C298.77 6.68 298.722 6.68 298.626 6.68C298.498 6.68 298.434 6.68 298.434 6.68V6.2H314.226V6.68H313.794C313.282 6.68 312.818 6.888 312.402 7.304C312.018 7.72 311.986 8.344 312.306 9.176Z" fill="#0C0F0A"/>
</svg>
