<svg width="338" height="36" viewBox="0 0 338 36" fill="none" xmlns="http://www.w3.org/2000/svg">
<path d="M13.6936 1.4H19.0696C22.2696 1.4 24.8136 1.832 26.7016 2.696C28.5896 3.528 29.9656 4.632 30.8296 6.008C31.7256 7.384 32.2216 8.904 32.3176 10.568C32.4136 12.328 32.1416 13.928 31.5016 15.368C30.8936 16.808 30.0136 18.008 28.8616 18.968C27.7416 19.928 26.4616 20.616 25.0216 21.032C23.5816 21.416 22.0776 21.48 20.5096 21.224C18.9416 20.936 17.4216 20.264 15.9496 19.208V18.728C15.9496 18.728 16.0936 18.712 16.3816 18.68C16.7016 18.616 17.1016 18.488 17.5816 18.296C18.0616 18.104 18.5576 17.816 19.0696 17.432C19.6136 17.048 20.1256 16.504 20.6056 15.8C21.0856 15.064 21.4536 14.152 21.7096 13.064C21.8376 12.584 21.9176 12.088 21.9496 11.576C22.0136 11.064 22.0296 10.6 21.9976 10.184C21.9336 8.232 21.3736 6.68 20.3176 5.528C19.2936 4.376 17.8536 3.8 15.9976 3.8H14.1736C14.1736 3.8 14.1256 3.608 14.0296 3.224C13.9656 2.808 13.8856 2.408 13.7896 2.024C13.7256 1.608 13.6936 1.4 13.6936 1.4ZM14.3176 1.4V35H4.47756V1.4H14.3176ZM4.62156 31.496V35H0.781563V34.52C0.845563 34.52 0.957563 34.52 1.11756 34.52C1.27756 34.52 1.37356 34.52 1.40556 34.52C2.23756 34.52 2.94156 34.232 3.51756 33.656C4.12556 33.048 4.44556 32.328 4.47756 31.496H4.62156ZM4.62156 4.904H4.47756C4.47756 4.072 4.17356 3.368 3.56556 2.792C2.95756 2.184 2.23756 1.88 1.40556 1.88C1.37356 1.88 1.27756 1.88 1.11756 1.88C0.989563 1.88 0.893563 1.88 0.829563 1.88L0.781563 1.4H4.62156V4.904ZM14.1736 31.496H14.3176C14.3496 32.328 14.6536 33.048 15.2296 33.656C15.8376 34.232 16.5576 34.52 17.3896 34.52C17.4536 34.52 17.5656 34.52 17.7256 34.52C17.8856 34.52 17.9816 34.52 18.0136 34.52V35H14.1736V31.496ZM44.0791 6.2V35H34.6711V6.2H44.0791ZM54.2071 32.792L56.1271 35H43.9831V32.792H54.2071ZM53.0071 19.688V21.944H43.9831V19.688H53.0071ZM55.1191 6.2V8.408H43.9831V6.2H55.1191ZM57.5671 24.92L56.2231 35H47.2951L48.6871 32.792C49.9351 32.792 51.1191 32.488 52.2391 31.88C53.3911 31.24 54.3991 30.344 55.2631 29.192C56.1271 28.008 56.7511 26.584 57.1351 24.92H57.5671ZM53.0071 21.848V27.032H52.5271V26.84C52.5271 25.432 52.0791 24.28 51.1831 23.384C50.3191 22.456 49.1831 21.976 47.7751 21.944V21.848H53.0071ZM53.0071 14.648V19.784H47.7751V19.688C49.1831 19.656 50.3191 19.176 51.1831 18.248C52.0791 17.32 52.5271 16.152 52.5271 14.744V14.648H53.0071ZM55.1191 8.312V14.552H54.6391V14.312C54.6391 12.456 54.1591 11.016 53.1991 9.992C52.2391 8.968 50.8471 8.44 49.0231 8.408V8.312H55.1191ZM55.1191 5.48V6.632L50.3671 6.2C51.2311 6.2 52.1431 6.12 53.1031 5.96C54.0951 5.768 54.7671 5.608 55.1191 5.48ZM34.8151 32.024L34.7671 35H31.6471V34.52C31.6471 34.52 31.7271 34.52 31.8871 34.52C32.0471 34.52 32.1431 34.52 32.1751 34.52C32.8471 34.52 33.4231 34.28 33.9031 33.8C34.4151 33.32 34.6711 32.728 34.6711 32.024H34.8151ZM34.8151 9.224H34.6711C34.6711 8.488 34.4151 7.88 33.9031 7.4C33.4231 6.92 32.8471 6.68 32.1751 6.68C32.1431 6.68 32.0471 6.68 31.8871 6.68C31.7271 6.68 31.6471 6.68 31.6471 6.68V6.2H34.7671L34.8151 9.224ZM69.4324 6.2H73.8964C75.1124 6.2 76.3604 6.312 77.6404 6.536C78.9204 6.728 80.1044 7.096 81.1924 7.64C82.2804 8.184 83.1604 8.984 83.8324 10.04C84.5044 11.064 84.8404 12.424 84.8404 14.12C84.8404 15.08 84.6644 16.104 84.3124 17.192C83.9924 18.28 83.3844 19.256 82.4884 20.12C81.6244 20.952 80.3604 21.512 78.6964 21.8C79.9124 22.12 80.9844 22.728 81.9124 23.624C82.8404 24.52 83.5124 25.336 83.9284 26.072C84.1524 26.456 84.3924 26.936 84.6484 27.512C84.9364 28.056 85.2724 28.664 85.6564 29.336C86.0404 30.008 86.4724 30.728 86.9524 31.496C87.5604 32.424 88.0884 33.112 88.5364 33.56C88.9844 33.976 89.4164 34.248 89.8324 34.376C90.2484 34.472 90.7124 34.52 91.2244 34.52V35H85.5604C83.8644 35 82.3924 34.936 81.1444 34.808C79.8964 34.648 78.7764 34.232 77.7844 33.56C76.8244 32.856 75.8804 31.72 74.9524 30.152C74.6004 29.544 74.2964 28.984 74.0404 28.472C73.8164 27.928 73.6244 27.4 73.4644 26.888C73.3044 26.376 73.1604 25.848 73.0324 25.304C72.9364 24.76 72.8244 24.2 72.6964 23.624C72.4724 22.504 72.1844 21.784 71.8324 21.464C71.4804 21.112 71.2404 20.92 71.1124 20.888V20.504C71.1444 20.504 71.1764 20.504 71.2084 20.504C71.2404 20.504 71.2884 20.504 71.3524 20.504C71.8644 20.504 72.3764 20.344 72.8884 20.024C73.4004 19.704 73.8484 19.176 74.2324 18.44C74.6164 17.672 74.8724 16.616 75.0004 15.272C75.0004 15.176 75.0164 15 75.0484 14.744C75.0804 14.488 75.0804 14.152 75.0484 13.736C74.9844 12.36 74.7444 11.32 74.3284 10.616C73.9124 9.88 73.4324 9.368 72.8884 9.08C72.3764 8.792 71.9124 8.632 71.4964 8.6C71.0804 8.536 70.8404 8.504 70.7764 8.504C70.7124 8.504 70.6324 8.504 70.5364 8.504C70.4724 8.504 70.2164 8.504 69.7684 8.504C69.7364 8.504 69.6884 8.312 69.6244 7.928C69.5924 7.544 69.5444 7.16 69.4804 6.776C69.4484 6.392 69.4324 6.2 69.4324 6.2ZM69.8164 6.2V35H60.3604V6.2H69.8164ZM60.5044 32.024L60.4564 35H57.3844V34.52C57.4484 34.52 57.5124 34.52 57.5764 34.52C57.6724 34.52 57.7844 34.52 57.9124 34.52C58.5524 34.52 59.1124 34.28 59.5924 33.8C60.1044 33.32 60.3604 32.728 60.3604 32.024H60.5044ZM60.5044 9.176H60.3604C60.3604 8.44 60.1204 7.848 59.6404 7.4C59.1604 6.92 58.6004 6.68 57.9604 6.68C57.8324 6.68 57.7204 6.68 57.6244 6.68C57.5284 6.68 57.4484 6.68 57.3844 6.68V6.2H60.4564L60.5044 9.176ZM69.7204 32.024H69.8164C69.8164 32.856 70.1044 33.48 70.6804 33.896C71.2564 34.312 71.8164 34.52 72.3604 34.52C72.3604 34.52 72.4084 34.52 72.5044 34.52C72.6004 34.52 72.6964 34.52 72.7924 34.52V35H69.7684L69.7204 32.024ZM97.9696 5.624C98.4496 5.624 99.2176 5.656 100.274 5.72C101.33 5.752 102.434 5.816 103.586 5.912C104.77 6.008 105.81 6.12 106.706 6.248C107.602 6.344 108.146 6.44 108.338 6.536L107.282 13.064H106.994C106.994 11.528 106.434 10.28 105.314 9.32C104.194 8.36 102.674 7.88 100.754 7.88C99.2496 7.88 98.0816 8.168 97.2496 8.744C96.4176 9.288 95.9376 10.056 95.8096 11.048C95.7456 11.752 95.8896 12.344 96.2416 12.824C96.6256 13.272 97.1376 13.656 97.7776 13.976C98.4176 14.296 99.0736 14.6 99.7456 14.888L105.938 17.72C107.538 18.424 108.834 19.48 109.826 20.888C110.818 22.264 111.218 24.056 111.026 26.264C110.866 28.312 110.258 30.04 109.202 31.448C108.146 32.824 106.674 33.864 104.786 34.568C102.898 35.24 100.626 35.576 97.9696 35.576C96.3056 35.576 94.8496 35.448 93.6016 35.192C92.3536 34.936 91.3296 34.6 90.5296 34.184C89.7296 33.768 89.1376 33.32 88.7536 32.84C88.4016 32.104 88.2576 31.208 88.3216 30.152C88.3856 29.096 88.5936 28.072 88.9456 27.08C89.2976 26.056 89.7136 25.24 90.1936 24.632H90.4816C90.4176 26.072 90.7056 27.464 91.3456 28.808C92.0176 30.12 93.0096 31.208 94.3216 32.072C95.6656 32.904 97.2816 33.336 99.1696 33.368C100.962 33.4 102.242 33.016 103.01 32.216C103.81 31.416 104.21 30.552 104.21 29.624C104.21 28.728 103.826 27.912 103.058 27.176C102.322 26.44 101.106 25.704 99.4096 24.968L94.3696 22.616C92.3216 21.752 90.8016 20.488 89.8096 18.824C88.8496 17.128 88.5296 15.208 88.8496 13.064C89.1056 11.4 89.6176 10.024 90.3856 8.936C91.1856 7.816 92.2256 6.984 93.5056 6.44C94.7856 5.896 96.2736 5.624 97.9696 5.624ZM108.434 6.056L108.29 6.872H102.05V6.056H108.434ZM129.486 5.624C132.238 5.624 134.686 5.96 136.83 6.632C139.006 7.304 140.846 8.28 142.35 9.56C143.886 10.84 145.038 12.408 145.806 14.264C146.606 16.12 147.006 18.248 147.006 20.648C147.006 23.016 146.606 25.128 145.806 26.984C145.038 28.808 143.886 30.36 142.35 31.64C140.846 32.92 139.006 33.896 136.83 34.568C134.686 35.24 132.238 35.576 129.486 35.576C126.766 35.576 124.318 35.24 122.142 34.568C119.998 33.896 118.158 32.92 116.622 31.64C115.118 30.36 113.966 28.808 113.166 26.984C112.398 25.128 112.014 23.016 112.014 20.648C112.014 18.248 112.398 16.12 113.166 14.264C113.966 12.408 115.118 10.84 116.622 9.56C118.158 8.28 119.998 7.304 122.142 6.632C124.318 5.96 126.766 5.624 129.486 5.624ZM129.486 33.416C131.182 33.416 132.59 32.92 133.71 31.928C134.862 30.904 135.726 29.448 136.302 27.56C136.878 25.64 137.166 23.336 137.166 20.648C137.166 17.928 136.878 15.608 136.302 13.688C135.726 11.768 134.862 10.312 133.71 9.32C132.59 8.296 131.182 7.784 129.486 7.784C127.822 7.784 126.414 8.296 125.262 9.32C124.142 10.312 123.278 11.768 122.67 13.688C122.094 15.608 121.806 17.928 121.806 20.648C121.806 23.336 122.094 25.64 122.67 27.56C123.278 29.448 124.142 30.904 125.262 31.928C126.414 32.92 127.822 33.416 129.486 33.416ZM149.051 5.576L178.235 30.152L178.763 35.576L149.579 11.096L149.051 5.576ZM149.339 32.12V35H145.787V34.52C145.787 34.52 145.915 34.52 146.171 34.52C146.427 34.52 146.555 34.52 146.555 34.52C147.291 34.52 147.915 34.296 148.427 33.848C148.939 33.4 149.195 32.824 149.195 32.12H149.339ZM158.603 32.12C158.635 32.824 158.907 33.4 159.419 33.848C159.931 34.296 160.539 34.52 161.243 34.52C161.243 34.52 161.371 34.52 161.627 34.52C161.883 34.52 162.011 34.52 162.011 34.52V35H158.507V32.12H158.603ZM149.051 5.576L158.603 15.704V35H149.195V10.664C149.195 9.032 149.099 7.784 148.907 6.92C148.715 6.024 148.619 5.576 148.619 5.576H149.051ZM178.619 6.2V30.344C178.619 31.496 178.667 32.472 178.763 33.272C178.859 34.04 178.955 34.616 179.051 35C179.147 35.384 179.195 35.576 179.195 35.576H178.763L169.211 24.632L169.163 6.2H178.619ZM178.523 9.08V6.2H182.075V6.68C182.075 6.68 181.931 6.68 181.643 6.68C181.387 6.68 181.259 6.68 181.259 6.68C180.555 6.68 179.947 6.904 179.435 7.352C178.923 7.8 178.651 8.376 178.619 9.08H178.523ZM169.163 9.08C169.163 8.376 168.907 7.8 168.395 7.352C167.915 6.904 167.307 6.68 166.571 6.68C166.571 6.68 166.427 6.68 166.139 6.68C165.883 6.68 165.755 6.68 165.755 6.68V6.2H169.307V9.08H169.163ZM195.001 4.472L209.881 34.76H198.985L190.873 16.232L195.001 4.472ZM186.121 32.072C185.769 32.872 185.817 33.48 186.265 33.896C186.713 34.312 187.209 34.52 187.753 34.52H188.089V35H178.201V34.52C178.201 34.52 178.265 34.52 178.393 34.52C178.521 34.52 178.585 34.52 178.585 34.52C179.225 34.52 179.897 34.344 180.601 33.992C181.305 33.608 181.865 32.968 182.281 32.072H186.121ZM195.001 4.472L194.953 11.816L184.873 34.856H180.985L192.121 10.856C192.249 10.536 192.441 10.104 192.697 9.56C192.953 8.984 193.209 8.376 193.465 7.736C193.753 7.064 194.009 6.44 194.233 5.864C194.457 5.288 194.585 4.824 194.617 4.472H195.001ZM198.217 26.744V28.904H186.265V26.744H198.217ZM197.785 32.072H208.537C208.985 32.968 209.561 33.608 210.265 33.992C210.969 34.344 211.641 34.52 212.281 34.52C212.281 34.52 212.345 34.52 212.473 34.52C212.601 34.52 212.665 34.52 212.665 34.52V35H195.769V34.52H196.153C196.697 34.52 197.193 34.312 197.641 33.896C198.089 33.48 198.137 32.872 197.785 32.072ZM223.121 1.4V35H213.281V1.4H223.121ZM234.017 17.24V19.64H222.977V17.24H234.017ZM236.561 1.4V3.848H222.977V1.4H236.561ZM234.017 19.544V25.112H233.537V24.872C233.537 23.368 233.041 22.136 232.049 21.176C231.089 20.184 229.857 19.672 228.353 19.64V19.544H234.017ZM234.017 11.768V17.336H228.353V17.24C229.857 17.208 231.105 16.696 232.097 15.704C233.089 14.712 233.569 13.464 233.537 11.96V11.768H234.017ZM236.561 3.704V10.424H236.081V10.04C236.081 8.12 235.537 6.616 234.449 5.528C233.361 4.408 231.841 3.832 229.889 3.8V3.704H236.561ZM236.561 0.535997V1.928L230.705 1.4C231.409 1.4 232.145 1.352 232.913 1.256C233.713 1.16 234.449 1.048 235.121 0.919998C235.793 0.791998 236.273 0.663998 236.561 0.535997ZM213.425 31.496V35H209.585V34.52C209.585 34.52 209.681 34.52 209.873 34.52C210.097 34.52 210.209 34.52 210.209 34.52C211.041 34.52 211.745 34.232 212.321 33.656C212.929 33.048 213.249 32.328 213.281 31.496H213.425ZM213.425 4.904H213.281C213.249 4.072 212.929 3.368 212.321 2.792C211.745 2.184 211.041 1.88 210.209 1.88C210.209 1.88 210.097 1.88 209.873 1.88C209.681 1.88 209.585 1.88 209.585 1.88V1.4H213.425V4.904ZM222.977 31.496H223.121C223.153 32.328 223.457 33.048 224.033 33.656C224.641 34.232 225.361 34.52 226.193 34.52C226.193 34.52 226.289 34.52 226.481 34.52C226.673 34.52 226.785 34.52 226.817 34.52V35H222.977V31.496ZM249.467 6.2V35H240.059V6.2H249.467ZM259.547 32.792L261.515 35H249.371V32.792H259.547ZM263.003 24.92L261.611 35H252.683L254.075 32.792C255.323 32.792 256.507 32.488 257.627 31.88C258.779 31.24 259.787 30.344 260.651 29.192C261.515 28.008 262.139 26.584 262.523 24.92H263.003ZM240.203 32.024L240.155 35H237.035V34.52C237.035 34.52 237.115 34.52 237.275 34.52C237.435 34.52 237.531 34.52 237.563 34.52C238.235 34.52 238.811 34.28 239.291 33.8C239.803 33.32 240.059 32.728 240.059 32.024H240.203ZM249.371 9.176V6.2H252.539V6.68C252.507 6.68 252.411 6.68 252.251 6.68C252.091 6.68 252.011 6.68 252.011 6.68C251.307 6.68 250.715 6.92 250.235 7.4C249.755 7.848 249.499 8.44 249.467 9.176H249.371ZM240.203 9.176H240.059C240.059 8.44 239.803 7.848 239.291 7.4C238.811 6.92 238.235 6.68 237.563 6.68C237.531 6.68 237.435 6.68 237.275 6.68C237.115 6.68 237.035 6.68 237.035 6.68V6.2H240.203V9.176ZM280.002 5.624C282.754 5.624 285.202 5.96 287.346 6.632C289.522 7.304 291.362 8.28 292.866 9.56C294.402 10.84 295.554 12.408 296.322 14.264C297.122 16.12 297.522 18.248 297.522 20.648C297.522 23.016 297.122 25.128 296.322 26.984C295.554 28.808 294.402 30.36 292.866 31.64C291.362 32.92 289.522 33.896 287.346 34.568C285.202 35.24 282.754 35.576 280.002 35.576C277.282 35.576 274.834 35.24 272.658 34.568C270.514 33.896 268.674 32.92 267.138 31.64C265.634 30.36 264.482 28.808 263.682 26.984C262.914 25.128 262.53 23.016 262.53 20.648C262.53 18.248 262.914 16.12 263.682 14.264C264.482 12.408 265.634 10.84 267.138 9.56C268.674 8.28 270.514 7.304 272.658 6.632C274.834 5.96 277.282 5.624 280.002 5.624ZM280.002 33.416C281.698 33.416 283.106 32.92 284.226 31.928C285.378 30.904 286.242 29.448 286.818 27.56C287.394 25.64 287.682 23.336 287.682 20.648C287.682 17.928 287.394 15.608 286.818 13.688C286.242 11.768 285.378 10.312 284.226 9.32C283.106 8.296 281.698 7.784 280.002 7.784C278.338 7.784 276.93 8.296 275.778 9.32C274.658 10.312 273.794 11.768 273.186 13.688C272.61 15.608 272.322 17.928 272.322 20.648C272.322 23.336 272.61 25.64 273.186 27.56C273.794 29.448 274.658 30.904 275.778 31.928C276.93 32.92 278.338 33.416 280.002 33.416ZM296.462 6.488H306.254L311.87 19.352L307.742 35.48L296.462 6.488ZM319.022 5.576L320.222 10.328L309.278 30.968C309.278 30.968 309.182 31.192 308.99 31.64C308.798 32.056 308.606 32.616 308.414 33.32C308.222 33.992 308.126 34.712 308.126 35.48H307.742L306.206 29.48L318.686 5.576H319.022ZM319.022 5.576L328.574 21.56L325.598 35.48L314.894 17.384L319.022 5.576ZM334.334 6.488L326.51 30.968C326.51 30.968 326.446 31.208 326.318 31.688C326.19 32.136 326.078 32.712 325.982 33.416C325.886 34.12 325.886 34.808 325.982 35.48H325.598L323.774 31.448L331.022 6.488H334.334ZM330.254 9.128C330.446 8.296 330.366 7.688 330.014 7.304C329.662 6.888 329.198 6.68 328.622 6.68H328.286V6.2H337.454V6.68C337.454 6.68 337.39 6.68 337.262 6.68C337.166 6.68 337.118 6.68 337.118 6.68C336.51 6.68 335.822 6.872 335.054 7.256C334.286 7.608 333.758 8.248 333.47 9.176L330.254 9.128ZM307.406 9.176H297.47C297.118 8.248 296.59 7.608 295.886 7.256C295.182 6.872 294.51 6.68 293.87 6.68C293.87 6.68 293.822 6.68 293.726 6.68C293.598 6.68 293.534 6.68 293.534 6.68V6.2H309.326V6.68H308.894C308.382 6.68 307.918 6.888 307.502 7.304C307.118 7.72 307.086 8.344 307.406 9.176Z" fill="white"/>
</svg>
